<mxfile host="Electron" agent="Mozilla/5.0 (Windows NT 10.0; Win64; x64) AppleWebKit/537.36 (KHTML, like Gecko) draw.io/24.7.17 Chrome/128.0.6613.36 Electron/32.0.1 Safari/537.36" version="24.7.17">
  <diagram id="C5RBs43oDa-KdzZeNtuy" name="Page-1">
    <mxGraphModel dx="2421" dy="932" grid="1" gridSize="10" guides="1" tooltips="1" connect="1" arrows="1" fold="1" page="1" pageScale="1" pageWidth="827" pageHeight="1169" math="0" shadow="0">
      <root>
        <mxCell id="WIyWlLk6GJQsqaUBKTNV-0" />
        <mxCell id="WIyWlLk6GJQsqaUBKTNV-1" parent="WIyWlLk6GJQsqaUBKTNV-0" />
        <mxCell id="SujRIby61cQIM5RwpC2A-5" style="edgeStyle=orthogonalEdgeStyle;rounded=0;orthogonalLoop=1;jettySize=auto;html=1;entryX=0.5;entryY=0;entryDx=0;entryDy=0;" parent="WIyWlLk6GJQsqaUBKTNV-1" source="SujRIby61cQIM5RwpC2A-1" target="SujRIby61cQIM5RwpC2A-3" edge="1">
          <mxGeometry relative="1" as="geometry" />
        </mxCell>
        <mxCell id="SujRIby61cQIM5RwpC2A-1" value="Mulai" style="ellipse;whiteSpace=wrap;html=1;" parent="WIyWlLk6GJQsqaUBKTNV-1" vertex="1">
          <mxGeometry x="-37.5" y="10" width="130" height="50" as="geometry" />
        </mxCell>
        <mxCell id="SujRIby61cQIM5RwpC2A-10" style="edgeStyle=orthogonalEdgeStyle;rounded=0;orthogonalLoop=1;jettySize=auto;html=1;entryX=0.5;entryY=0;entryDx=0;entryDy=0;" parent="WIyWlLk6GJQsqaUBKTNV-1" edge="1">
          <mxGeometry relative="1" as="geometry">
            <mxPoint x="28.58" y="40" as="sourcePoint" />
            <mxPoint x="28.58" y="420" as="targetPoint" />
          </mxGeometry>
        </mxCell>
        <mxCell id="SujRIby61cQIM5RwpC2A-3" value="&lt;div&gt;&lt;span style=&quot;background-color: initial;&quot;&gt;Menu awal:&lt;/span&gt;&lt;br&gt;&lt;/div&gt;&lt;div&gt;1. Login&lt;/div&gt;&lt;div&gt;2. Register&lt;/div&gt;&lt;div&gt;3, Keluar program&lt;/div&gt;" style="shape=parallelogram;perimeter=parallelogramPerimeter;whiteSpace=wrap;html=1;fixedSize=1;" parent="WIyWlLk6GJQsqaUBKTNV-1" vertex="1">
          <mxGeometry x="-65" y="150" width="185" height="100" as="geometry" />
        </mxCell>
        <mxCell id="SujRIby61cQIM5RwpC2A-16" value="input menu" style="shape=parallelogram;perimeter=parallelogramPerimeter;whiteSpace=wrap;html=1;fixedSize=1;" parent="WIyWlLk6GJQsqaUBKTNV-1" vertex="1">
          <mxGeometry x="-32" y="300" width="122" height="60" as="geometry" />
        </mxCell>
        <mxCell id="SujRIby61cQIM5RwpC2A-17" value="" style="endArrow=classic;html=1;rounded=0;entryX=0.158;entryY=0.019;entryDx=0;entryDy=0;entryPerimeter=0;" parent="WIyWlLk6GJQsqaUBKTNV-1" target="SujRIby61cQIM5RwpC2A-16" edge="1">
          <mxGeometry width="50" height="50" relative="1" as="geometry">
            <mxPoint x="-110" y="301" as="sourcePoint" />
            <mxPoint x="-40" y="280" as="targetPoint" />
          </mxGeometry>
        </mxCell>
        <mxCell id="znclABgi2BFPKexRemwQ-11" style="edgeStyle=orthogonalEdgeStyle;rounded=0;orthogonalLoop=1;jettySize=auto;html=1;exitX=0;exitY=0.5;exitDx=0;exitDy=0;" parent="WIyWlLk6GJQsqaUBKTNV-1" source="SujRIby61cQIM5RwpC2A-18" target="SujRIby61cQIM5RwpC2A-21" edge="1">
          <mxGeometry relative="1" as="geometry" />
        </mxCell>
        <mxCell id="znclABgi2BFPKexRemwQ-14" style="edgeStyle=orthogonalEdgeStyle;rounded=0;orthogonalLoop=1;jettySize=auto;html=1;" parent="WIyWlLk6GJQsqaUBKTNV-1" source="SujRIby61cQIM5RwpC2A-18" target="znclABgi2BFPKexRemwQ-13" edge="1">
          <mxGeometry relative="1" as="geometry" />
        </mxCell>
        <mxCell id="SujRIby61cQIM5RwpC2A-18" value="Pilihan = 1" style="rhombus;whiteSpace=wrap;html=1;" parent="WIyWlLk6GJQsqaUBKTNV-1" vertex="1">
          <mxGeometry x="-27" y="420" width="112" height="110" as="geometry" />
        </mxCell>
        <mxCell id="SujRIby61cQIM5RwpC2A-19" value="T" style="text;html=1;align=center;verticalAlign=middle;whiteSpace=wrap;rounded=0;" parent="WIyWlLk6GJQsqaUBKTNV-1" vertex="1">
          <mxGeometry x="40" y="420" width="60" height="30" as="geometry" />
        </mxCell>
        <mxCell id="SujRIby61cQIM5RwpC2A-20" value="F" style="text;html=1;align=center;verticalAlign=middle;whiteSpace=wrap;rounded=0;" parent="WIyWlLk6GJQsqaUBKTNV-1" vertex="1">
          <mxGeometry x="-40" y="420" width="60" height="30" as="geometry" />
        </mxCell>
        <mxCell id="znclABgi2BFPKexRemwQ-156" style="edgeStyle=orthogonalEdgeStyle;rounded=0;orthogonalLoop=1;jettySize=auto;html=1;" parent="WIyWlLk6GJQsqaUBKTNV-1" source="f06vRgXJLZa4It2unBZa-2" target="znclABgi2BFPKexRemwQ-155" edge="1">
          <mxGeometry relative="1" as="geometry" />
        </mxCell>
        <mxCell id="f06vRgXJLZa4It2unBZa-3" style="edgeStyle=orthogonalEdgeStyle;rounded=0;orthogonalLoop=1;jettySize=auto;html=1;exitX=0;exitY=0.5;exitDx=0;exitDy=0;entryX=0.75;entryY=0;entryDx=0;entryDy=0;" parent="WIyWlLk6GJQsqaUBKTNV-1" source="SujRIby61cQIM5RwpC2A-21" target="SujRIby61cQIM5RwpC2A-24" edge="1">
          <mxGeometry relative="1" as="geometry" />
        </mxCell>
        <mxCell id="SujRIby61cQIM5RwpC2A-21" value="Pilihan = 2" style="rhombus;whiteSpace=wrap;html=1;" parent="WIyWlLk6GJQsqaUBKTNV-1" vertex="1">
          <mxGeometry x="-225" y="422" width="110" height="105" as="geometry" />
        </mxCell>
        <mxCell id="znclABgi2BFPKexRemwQ-55" style="edgeStyle=orthogonalEdgeStyle;rounded=0;orthogonalLoop=1;jettySize=auto;html=1;" parent="WIyWlLk6GJQsqaUBKTNV-1" source="SujRIby61cQIM5RwpC2A-24" target="znclABgi2BFPKexRemwQ-54" edge="1">
          <mxGeometry relative="1" as="geometry" />
        </mxCell>
        <mxCell id="SujRIby61cQIM5RwpC2A-24" value="Masukkan username&lt;div&gt;dan password serta tentukan akun menjadi user atau admin&lt;/div&gt;" style="shape=parallelogram;perimeter=parallelogramPerimeter;whiteSpace=wrap;html=1;fixedSize=1;" parent="WIyWlLk6GJQsqaUBKTNV-1" vertex="1">
          <mxGeometry x="-440" y="549.5" width="220" height="103" as="geometry" />
        </mxCell>
        <mxCell id="znclABgi2BFPKexRemwQ-1" value="" style="endArrow=classic;html=1;rounded=0;entryX=0;entryY=0;entryDx=0;entryDy=0;" parent="WIyWlLk6GJQsqaUBKTNV-1" target="SujRIby61cQIM5RwpC2A-24" edge="1">
          <mxGeometry width="50" height="50" relative="1" as="geometry">
            <mxPoint x="-480" y="558.5" as="sourcePoint" />
            <mxPoint x="-430" y="519.5" as="targetPoint" />
            <Array as="points" />
          </mxGeometry>
        </mxCell>
        <mxCell id="znclABgi2BFPKexRemwQ-23" style="edgeStyle=orthogonalEdgeStyle;rounded=0;orthogonalLoop=1;jettySize=auto;html=1;exitX=1;exitY=0.5;exitDx=0;exitDy=0;" parent="WIyWlLk6GJQsqaUBKTNV-1" source="znclABgi2BFPKexRemwQ-13" target="znclABgi2BFPKexRemwQ-22" edge="1">
          <mxGeometry relative="1" as="geometry">
            <mxPoint x="590.0000000000005" y="474.7777777777778" as="targetPoint" />
          </mxGeometry>
        </mxCell>
        <mxCell id="znclABgi2BFPKexRemwQ-13" value="Masukkan username dan password" style="shape=parallelogram;perimeter=parallelogramPerimeter;whiteSpace=wrap;html=1;fixedSize=1;" parent="WIyWlLk6GJQsqaUBKTNV-1" vertex="1">
          <mxGeometry x="240" y="431.25" width="240" height="87.5" as="geometry" />
        </mxCell>
        <mxCell id="znclABgi2BFPKexRemwQ-15" value="" style="endArrow=classic;html=1;rounded=0;entryX=0;entryY=0;entryDx=0;entryDy=0;" parent="WIyWlLk6GJQsqaUBKTNV-1" target="znclABgi2BFPKexRemwQ-13" edge="1">
          <mxGeometry width="50" height="50" relative="1" as="geometry">
            <mxPoint x="190" y="438" as="sourcePoint" />
            <mxPoint x="150" y="390" as="targetPoint" />
          </mxGeometry>
        </mxCell>
        <mxCell id="znclABgi2BFPKexRemwQ-26" style="edgeStyle=orthogonalEdgeStyle;rounded=0;orthogonalLoop=1;jettySize=auto;html=1;entryX=1;entryY=0.5;entryDx=0;entryDy=0;" parent="WIyWlLk6GJQsqaUBKTNV-1" source="znclABgi2BFPKexRemwQ-22" target="SujRIby61cQIM5RwpC2A-3" edge="1">
          <mxGeometry relative="1" as="geometry">
            <Array as="points">
              <mxPoint x="765" y="200" />
            </Array>
          </mxGeometry>
        </mxCell>
        <mxCell id="znclABgi2BFPKexRemwQ-28" style="edgeStyle=orthogonalEdgeStyle;rounded=0;orthogonalLoop=1;jettySize=auto;html=1;exitX=0.5;exitY=1;exitDx=0;exitDy=0;" parent="WIyWlLk6GJQsqaUBKTNV-1" source="znclABgi2BFPKexRemwQ-22" target="znclABgi2BFPKexRemwQ-27" edge="1">
          <mxGeometry relative="1" as="geometry" />
        </mxCell>
        <mxCell id="znclABgi2BFPKexRemwQ-22" value="Username dan password&lt;div&gt;benar&lt;/div&gt;" style="rhombus;whiteSpace=wrap;html=1;" parent="WIyWlLk6GJQsqaUBKTNV-1" vertex="1">
          <mxGeometry x="670" y="400" width="190" height="150" as="geometry" />
        </mxCell>
        <mxCell id="znclABgi2BFPKexRemwQ-24" value="T" style="text;html=1;align=center;verticalAlign=middle;whiteSpace=wrap;rounded=0;" parent="WIyWlLk6GJQsqaUBKTNV-1" vertex="1">
          <mxGeometry x="650" y="510" width="60" height="30" as="geometry" />
        </mxCell>
        <mxCell id="znclABgi2BFPKexRemwQ-25" value="F" style="text;html=1;align=center;verticalAlign=middle;whiteSpace=wrap;rounded=0;" parent="WIyWlLk6GJQsqaUBKTNV-1" vertex="1">
          <mxGeometry x="660" y="400" width="60" height="30" as="geometry" />
        </mxCell>
        <mxCell id="znclABgi2BFPKexRemwQ-32" style="edgeStyle=orthogonalEdgeStyle;rounded=0;orthogonalLoop=1;jettySize=auto;html=1;exitX=0;exitY=0.5;exitDx=0;exitDy=0;entryX=1;entryY=0.5;entryDx=0;entryDy=0;" parent="WIyWlLk6GJQsqaUBKTNV-1" source="znclABgi2BFPKexRemwQ-27" target="znclABgi2BFPKexRemwQ-31" edge="1">
          <mxGeometry relative="1" as="geometry" />
        </mxCell>
        <mxCell id="znclABgi2BFPKexRemwQ-108" style="edgeStyle=orthogonalEdgeStyle;rounded=0;orthogonalLoop=1;jettySize=auto;html=1;entryX=0.5;entryY=0;entryDx=0;entryDy=0;" parent="WIyWlLk6GJQsqaUBKTNV-1" source="znclABgi2BFPKexRemwQ-27" target="znclABgi2BFPKexRemwQ-68" edge="1">
          <mxGeometry relative="1" as="geometry">
            <Array as="points">
              <mxPoint x="870" y="570" />
              <mxPoint x="1565" y="570" />
            </Array>
          </mxGeometry>
        </mxCell>
        <mxCell id="znclABgi2BFPKexRemwQ-27" value="Role Admin" style="rhombus;whiteSpace=wrap;html=1;" parent="WIyWlLk6GJQsqaUBKTNV-1" vertex="1">
          <mxGeometry x="660.63" y="670" width="208.75" height="180" as="geometry" />
        </mxCell>
        <mxCell id="znclABgi2BFPKexRemwQ-29" value="T" style="text;html=1;align=center;verticalAlign=middle;whiteSpace=wrap;rounded=0;" parent="WIyWlLk6GJQsqaUBKTNV-1" vertex="1">
          <mxGeometry x="820" y="680" width="60" height="30" as="geometry" />
        </mxCell>
        <mxCell id="znclABgi2BFPKexRemwQ-30" value="F" style="text;html=1;align=center;verticalAlign=middle;whiteSpace=wrap;rounded=0;" parent="WIyWlLk6GJQsqaUBKTNV-1" vertex="1">
          <mxGeometry x="650" y="680" width="60" height="30" as="geometry" />
        </mxCell>
        <mxCell id="znclABgi2BFPKexRemwQ-34" style="edgeStyle=orthogonalEdgeStyle;rounded=0;orthogonalLoop=1;jettySize=auto;html=1;exitX=0.5;exitY=1;exitDx=0;exitDy=0;entryX=0.5;entryY=0;entryDx=0;entryDy=0;" parent="WIyWlLk6GJQsqaUBKTNV-1" source="znclABgi2BFPKexRemwQ-31" target="znclABgi2BFPKexRemwQ-33" edge="1">
          <mxGeometry relative="1" as="geometry" />
        </mxCell>
        <mxCell id="znclABgi2BFPKexRemwQ-31" value="Menu:&lt;div&gt;1. Melihat list hero meta&lt;/div&gt;&lt;div&gt;2. Logout&lt;/div&gt;&lt;div&gt;&lt;br&gt;&lt;/div&gt;" style="shape=parallelogram;perimeter=parallelogramPerimeter;whiteSpace=wrap;html=1;fixedSize=1;" parent="WIyWlLk6GJQsqaUBKTNV-1" vertex="1">
          <mxGeometry x="300" y="727.5" width="210" height="65" as="geometry" />
        </mxCell>
        <mxCell id="znclABgi2BFPKexRemwQ-38" style="edgeStyle=orthogonalEdgeStyle;rounded=0;orthogonalLoop=1;jettySize=auto;html=1;exitX=0.5;exitY=1;exitDx=0;exitDy=0;entryX=0.5;entryY=0;entryDx=0;entryDy=0;" parent="WIyWlLk6GJQsqaUBKTNV-1" source="znclABgi2BFPKexRemwQ-33" target="znclABgi2BFPKexRemwQ-37" edge="1">
          <mxGeometry relative="1" as="geometry" />
        </mxCell>
        <mxCell id="znclABgi2BFPKexRemwQ-33" value="Input menu" style="shape=parallelogram;perimeter=parallelogramPerimeter;whiteSpace=wrap;html=1;fixedSize=1;" parent="WIyWlLk6GJQsqaUBKTNV-1" vertex="1">
          <mxGeometry x="305" y="870" width="200" height="60" as="geometry" />
        </mxCell>
        <mxCell id="znclABgi2BFPKexRemwQ-35" style="edgeStyle=orthogonalEdgeStyle;rounded=0;orthogonalLoop=1;jettySize=auto;html=1;exitX=0.5;exitY=1;exitDx=0;exitDy=0;" parent="WIyWlLk6GJQsqaUBKTNV-1" source="znclABgi2BFPKexRemwQ-31" target="znclABgi2BFPKexRemwQ-31" edge="1">
          <mxGeometry relative="1" as="geometry" />
        </mxCell>
        <mxCell id="znclABgi2BFPKexRemwQ-36" value="" style="endArrow=classic;html=1;rounded=0;entryX=0;entryY=0;entryDx=0;entryDy=0;" parent="WIyWlLk6GJQsqaUBKTNV-1" target="znclABgi2BFPKexRemwQ-33" edge="1">
          <mxGeometry width="50" height="50" relative="1" as="geometry">
            <mxPoint x="250" y="875" as="sourcePoint" />
            <mxPoint x="200" y="870" as="targetPoint" />
          </mxGeometry>
        </mxCell>
        <mxCell id="znclABgi2BFPKexRemwQ-40" style="edgeStyle=orthogonalEdgeStyle;rounded=0;orthogonalLoop=1;jettySize=auto;html=1;exitX=0;exitY=0.5;exitDx=0;exitDy=0;entryX=0.5;entryY=0;entryDx=0;entryDy=0;" parent="WIyWlLk6GJQsqaUBKTNV-1" source="znclABgi2BFPKexRemwQ-37" target="znclABgi2BFPKexRemwQ-39" edge="1">
          <mxGeometry relative="1" as="geometry" />
        </mxCell>
        <mxCell id="znclABgi2BFPKexRemwQ-51" style="edgeStyle=orthogonalEdgeStyle;rounded=0;orthogonalLoop=1;jettySize=auto;html=1;" parent="WIyWlLk6GJQsqaUBKTNV-1" source="znclABgi2BFPKexRemwQ-37" target="znclABgi2BFPKexRemwQ-50" edge="1">
          <mxGeometry relative="1" as="geometry" />
        </mxCell>
        <mxCell id="znclABgi2BFPKexRemwQ-37" value="Input = 1" style="rhombus;whiteSpace=wrap;html=1;" parent="WIyWlLk6GJQsqaUBKTNV-1" vertex="1">
          <mxGeometry x="337.5" y="1010" width="135" height="140" as="geometry" />
        </mxCell>
        <mxCell id="znclABgi2BFPKexRemwQ-43" style="edgeStyle=orthogonalEdgeStyle;rounded=0;orthogonalLoop=1;jettySize=auto;html=1;entryX=0.5;entryY=0;entryDx=0;entryDy=0;" parent="WIyWlLk6GJQsqaUBKTNV-1" source="znclABgi2BFPKexRemwQ-39" target="znclABgi2BFPKexRemwQ-41" edge="1">
          <mxGeometry relative="1" as="geometry" />
        </mxCell>
        <mxCell id="znclABgi2BFPKexRemwQ-39" value="Menu list hero:&lt;br&gt;1. Semua hero&lt;div&gt;2. Hero Jungle&lt;/div&gt;&lt;div&gt;3. Hero Roam&lt;/div&gt;&lt;div&gt;4. Hero Gold&lt;/div&gt;&lt;div&gt;5. Hero EXP&lt;/div&gt;" style="shape=parallelogram;perimeter=parallelogramPerimeter;whiteSpace=wrap;html=1;fixedSize=1;" parent="WIyWlLk6GJQsqaUBKTNV-1" vertex="1">
          <mxGeometry x="110" y="1160" width="240" height="120" as="geometry" />
        </mxCell>
        <mxCell id="znclABgi2BFPKexRemwQ-45" style="edgeStyle=orthogonalEdgeStyle;rounded=0;orthogonalLoop=1;jettySize=auto;html=1;entryX=0.5;entryY=0;entryDx=0;entryDy=0;" parent="WIyWlLk6GJQsqaUBKTNV-1" source="znclABgi2BFPKexRemwQ-41" target="znclABgi2BFPKexRemwQ-44" edge="1">
          <mxGeometry relative="1" as="geometry" />
        </mxCell>
        <mxCell id="znclABgi2BFPKexRemwQ-41" value="Input menu" style="shape=parallelogram;perimeter=parallelogramPerimeter;whiteSpace=wrap;html=1;fixedSize=1;" parent="WIyWlLk6GJQsqaUBKTNV-1" vertex="1">
          <mxGeometry x="130" y="1400" width="200" height="60" as="geometry" />
        </mxCell>
        <mxCell id="znclABgi2BFPKexRemwQ-42" value="" style="endArrow=classic;html=1;rounded=0;entryX=0;entryY=0;entryDx=0;entryDy=0;" parent="WIyWlLk6GJQsqaUBKTNV-1" target="znclABgi2BFPKexRemwQ-41" edge="1">
          <mxGeometry width="50" height="50" relative="1" as="geometry">
            <mxPoint x="60" y="1405" as="sourcePoint" />
            <mxPoint x="10" y="1400" as="targetPoint" />
          </mxGeometry>
        </mxCell>
        <mxCell id="znclABgi2BFPKexRemwQ-46" style="edgeStyle=orthogonalEdgeStyle;rounded=0;orthogonalLoop=1;jettySize=auto;html=1;entryX=0;entryY=0.5;entryDx=0;entryDy=0;" parent="WIyWlLk6GJQsqaUBKTNV-1" source="znclABgi2BFPKexRemwQ-44" target="znclABgi2BFPKexRemwQ-31" edge="1">
          <mxGeometry relative="1" as="geometry">
            <Array as="points">
              <mxPoint x="-20" y="1565" />
              <mxPoint x="-20" y="760" />
            </Array>
          </mxGeometry>
        </mxCell>
        <mxCell id="znclABgi2BFPKexRemwQ-44" value="Muncul list hero sesuai input menu" style="shape=parallelogram;perimeter=parallelogramPerimeter;whiteSpace=wrap;html=1;fixedSize=1;" parent="WIyWlLk6GJQsqaUBKTNV-1" vertex="1">
          <mxGeometry x="120" y="1530" width="220" height="70" as="geometry" />
        </mxCell>
        <mxCell id="znclABgi2BFPKexRemwQ-47" value="F" style="text;html=1;align=center;verticalAlign=middle;whiteSpace=wrap;rounded=0;" parent="WIyWlLk6GJQsqaUBKTNV-1" vertex="1">
          <mxGeometry x="-140" y="488.25" width="60" height="30" as="geometry" />
        </mxCell>
        <mxCell id="znclABgi2BFPKexRemwQ-49" value="T" style="text;html=1;align=center;verticalAlign=middle;whiteSpace=wrap;rounded=0;" parent="WIyWlLk6GJQsqaUBKTNV-1" vertex="1">
          <mxGeometry x="-240" y="422" width="60" height="30" as="geometry" />
        </mxCell>
        <mxCell id="znclABgi2BFPKexRemwQ-65" style="edgeStyle=orthogonalEdgeStyle;rounded=0;orthogonalLoop=1;jettySize=auto;html=1;entryX=0.5;entryY=1;entryDx=0;entryDy=0;" parent="WIyWlLk6GJQsqaUBKTNV-1" source="znclABgi2BFPKexRemwQ-50" target="znclABgi2BFPKexRemwQ-64" edge="1">
          <mxGeometry relative="1" as="geometry" />
        </mxCell>
        <mxCell id="f06vRgXJLZa4It2unBZa-1" style="edgeStyle=orthogonalEdgeStyle;rounded=0;orthogonalLoop=1;jettySize=auto;html=1;entryX=1;entryY=0;entryDx=0;entryDy=0;" parent="WIyWlLk6GJQsqaUBKTNV-1" source="znclABgi2BFPKexRemwQ-50" target="SujRIby61cQIM5RwpC2A-3" edge="1">
          <mxGeometry relative="1" as="geometry">
            <Array as="points">
              <mxPoint x="565" y="2030" />
              <mxPoint x="2950" y="2030" />
              <mxPoint x="2950" y="130" />
              <mxPoint x="120" y="130" />
            </Array>
          </mxGeometry>
        </mxCell>
        <mxCell id="znclABgi2BFPKexRemwQ-50" value="Input = 2" style="rhombus;whiteSpace=wrap;html=1;" parent="WIyWlLk6GJQsqaUBKTNV-1" vertex="1">
          <mxGeometry x="500" y="1170" width="130" height="110" as="geometry" />
        </mxCell>
        <mxCell id="znclABgi2BFPKexRemwQ-52" value="F" style="text;html=1;align=center;verticalAlign=middle;whiteSpace=wrap;rounded=0;" parent="WIyWlLk6GJQsqaUBKTNV-1" vertex="1">
          <mxGeometry x="430" y="1010" width="60" height="30" as="geometry" />
        </mxCell>
        <mxCell id="znclABgi2BFPKexRemwQ-53" value="T" style="text;html=1;align=center;verticalAlign=middle;whiteSpace=wrap;rounded=0;" parent="WIyWlLk6GJQsqaUBKTNV-1" vertex="1">
          <mxGeometry x="320" y="1010" width="60" height="30" as="geometry" />
        </mxCell>
        <mxCell id="znclABgi2BFPKexRemwQ-58" style="edgeStyle=orthogonalEdgeStyle;rounded=0;orthogonalLoop=1;jettySize=auto;html=1;entryX=0;entryY=0.5;entryDx=0;entryDy=0;" parent="WIyWlLk6GJQsqaUBKTNV-1" edge="1">
          <mxGeometry relative="1" as="geometry">
            <mxPoint x="-325.0000000000002" y="790.0000000000002" as="sourcePoint" />
            <mxPoint x="-430" y="599" as="targetPoint" />
            <Array as="points">
              <mxPoint x="-325" y="879.5" />
              <mxPoint x="-570" y="879.5" />
              <mxPoint x="-570" y="599.5" />
            </Array>
          </mxGeometry>
        </mxCell>
        <mxCell id="znclABgi2BFPKexRemwQ-62" style="edgeStyle=orthogonalEdgeStyle;rounded=0;orthogonalLoop=1;jettySize=auto;html=1;entryX=0;entryY=0.5;entryDx=0;entryDy=0;" parent="WIyWlLk6GJQsqaUBKTNV-1" source="znclABgi2BFPKexRemwQ-54" target="SujRIby61cQIM5RwpC2A-3" edge="1">
          <mxGeometry relative="1" as="geometry">
            <Array as="points">
              <mxPoint x="-430" y="872" />
              <mxPoint x="-430" y="1060" />
              <mxPoint x="-630" y="1060" />
              <mxPoint x="-630" y="200" />
            </Array>
          </mxGeometry>
        </mxCell>
        <mxCell id="znclABgi2BFPKexRemwQ-54" value="Username sudah terpakai" style="rhombus;whiteSpace=wrap;html=1;" parent="WIyWlLk6GJQsqaUBKTNV-1" vertex="1">
          <mxGeometry x="-415" y="792" width="170" height="160" as="geometry" />
        </mxCell>
        <mxCell id="znclABgi2BFPKexRemwQ-56" value="F" style="text;html=1;align=center;verticalAlign=middle;whiteSpace=wrap;rounded=0;" parent="WIyWlLk6GJQsqaUBKTNV-1" vertex="1">
          <mxGeometry x="-300" y="909.5" width="60" height="30" as="geometry" />
        </mxCell>
        <mxCell id="znclABgi2BFPKexRemwQ-57" value="T" style="text;html=1;align=center;verticalAlign=middle;whiteSpace=wrap;rounded=0;" parent="WIyWlLk6GJQsqaUBKTNV-1" vertex="1">
          <mxGeometry x="-420" y="792" width="60" height="30" as="geometry" />
        </mxCell>
        <mxCell id="znclABgi2BFPKexRemwQ-63" value="F" style="text;html=1;align=center;verticalAlign=middle;whiteSpace=wrap;rounded=0;" parent="WIyWlLk6GJQsqaUBKTNV-1" vertex="1">
          <mxGeometry x="590" y="1160" width="60" height="30" as="geometry" />
        </mxCell>
        <mxCell id="znclABgi2BFPKexRemwQ-67" style="edgeStyle=orthogonalEdgeStyle;rounded=0;orthogonalLoop=1;jettySize=auto;html=1;entryX=1;entryY=0.75;entryDx=0;entryDy=0;" parent="WIyWlLk6GJQsqaUBKTNV-1" source="znclABgi2BFPKexRemwQ-64" target="znclABgi2BFPKexRemwQ-31" edge="1">
          <mxGeometry relative="1" as="geometry">
            <Array as="points">
              <mxPoint x="560" y="925" />
              <mxPoint x="560" y="774" />
            </Array>
          </mxGeometry>
        </mxCell>
        <mxCell id="znclABgi2BFPKexRemwQ-64" value="Anda memasukkan nomor yang salah" style="shape=parallelogram;perimeter=parallelogramPerimeter;whiteSpace=wrap;html=1;fixedSize=1;" parent="WIyWlLk6GJQsqaUBKTNV-1" vertex="1">
          <mxGeometry x="610" y="880" width="250" height="89.5" as="geometry" />
        </mxCell>
        <mxCell id="znclABgi2BFPKexRemwQ-74" style="edgeStyle=orthogonalEdgeStyle;rounded=0;orthogonalLoop=1;jettySize=auto;html=1;" parent="WIyWlLk6GJQsqaUBKTNV-1" source="znclABgi2BFPKexRemwQ-68" target="znclABgi2BFPKexRemwQ-72" edge="1">
          <mxGeometry relative="1" as="geometry" />
        </mxCell>
        <mxCell id="znclABgi2BFPKexRemwQ-68" value="Menu:&lt;div&gt;1. Melihat list hero meta&lt;/div&gt;&lt;div&gt;2. Menambah hero pada list meta&lt;/div&gt;&lt;div&gt;3. Mengedit hero pada list meta&lt;/div&gt;&lt;div&gt;4. Menghapus hero pada list meta&lt;/div&gt;&lt;div&gt;5. Logout&lt;/div&gt;&lt;div&gt;&lt;br&gt;&lt;/div&gt;" style="shape=parallelogram;perimeter=parallelogramPerimeter;whiteSpace=wrap;html=1;fixedSize=1;" parent="WIyWlLk6GJQsqaUBKTNV-1" vertex="1">
          <mxGeometry x="1785" y="720" width="260" height="112.5" as="geometry" />
        </mxCell>
        <mxCell id="znclABgi2BFPKexRemwQ-76" style="edgeStyle=orthogonalEdgeStyle;rounded=0;orthogonalLoop=1;jettySize=auto;html=1;entryX=0.5;entryY=0;entryDx=0;entryDy=0;" parent="WIyWlLk6GJQsqaUBKTNV-1" source="znclABgi2BFPKexRemwQ-72" target="znclABgi2BFPKexRemwQ-75" edge="1">
          <mxGeometry relative="1" as="geometry" />
        </mxCell>
        <mxCell id="znclABgi2BFPKexRemwQ-72" value="Input menu" style="shape=parallelogram;perimeter=parallelogramPerimeter;whiteSpace=wrap;html=1;fixedSize=1;" parent="WIyWlLk6GJQsqaUBKTNV-1" vertex="1">
          <mxGeometry x="1630" y="906.25" width="200" height="60" as="geometry" />
        </mxCell>
        <mxCell id="znclABgi2BFPKexRemwQ-73" value="" style="endArrow=classic;html=1;rounded=0;entryX=0;entryY=0;entryDx=0;entryDy=0;" parent="WIyWlLk6GJQsqaUBKTNV-1" target="znclABgi2BFPKexRemwQ-72" edge="1">
          <mxGeometry width="50" height="50" relative="1" as="geometry">
            <mxPoint x="1580" y="911.25" as="sourcePoint" />
            <mxPoint x="1530" y="895.75" as="targetPoint" />
          </mxGeometry>
        </mxCell>
        <mxCell id="znclABgi2BFPKexRemwQ-78" style="edgeStyle=orthogonalEdgeStyle;rounded=0;orthogonalLoop=1;jettySize=auto;html=1;entryX=1;entryY=0.5;entryDx=0;entryDy=0;" parent="WIyWlLk6GJQsqaUBKTNV-1" source="znclABgi2BFPKexRemwQ-75" target="znclABgi2BFPKexRemwQ-77" edge="1">
          <mxGeometry relative="1" as="geometry" />
        </mxCell>
        <mxCell id="znclABgi2BFPKexRemwQ-95" style="edgeStyle=orthogonalEdgeStyle;rounded=0;orthogonalLoop=1;jettySize=auto;html=1;" parent="WIyWlLk6GJQsqaUBKTNV-1" source="znclABgi2BFPKexRemwQ-75" target="znclABgi2BFPKexRemwQ-94" edge="1">
          <mxGeometry relative="1" as="geometry" />
        </mxCell>
        <mxCell id="znclABgi2BFPKexRemwQ-75" value="input = 1" style="rhombus;whiteSpace=wrap;html=1;" parent="WIyWlLk6GJQsqaUBKTNV-1" vertex="1">
          <mxGeometry x="1665" y="1066.25" width="130" height="110" as="geometry" />
        </mxCell>
        <mxCell id="znclABgi2BFPKexRemwQ-87" style="edgeStyle=orthogonalEdgeStyle;rounded=0;orthogonalLoop=1;jettySize=auto;html=1;entryX=0.5;entryY=0;entryDx=0;entryDy=0;" parent="WIyWlLk6GJQsqaUBKTNV-1" source="znclABgi2BFPKexRemwQ-77" target="znclABgi2BFPKexRemwQ-84" edge="1">
          <mxGeometry relative="1" as="geometry" />
        </mxCell>
        <mxCell id="znclABgi2BFPKexRemwQ-77" value="Menu list hero:&lt;br&gt;1. Semua hero&lt;div&gt;2. Hero Jungle&lt;/div&gt;&lt;div&gt;3. Hero Roam&lt;/div&gt;&lt;div&gt;4. Hero Gold&lt;/div&gt;&lt;div&gt;5. Hero EXP&lt;/div&gt;" style="shape=parallelogram;perimeter=parallelogramPerimeter;whiteSpace=wrap;html=1;fixedSize=1;" parent="WIyWlLk6GJQsqaUBKTNV-1" vertex="1">
          <mxGeometry x="1330" y="1061.25" width="240" height="120" as="geometry" />
        </mxCell>
        <mxCell id="znclABgi2BFPKexRemwQ-83" style="edgeStyle=orthogonalEdgeStyle;rounded=0;orthogonalLoop=1;jettySize=auto;html=1;entryX=0.5;entryY=0;entryDx=0;entryDy=0;" parent="WIyWlLk6GJQsqaUBKTNV-1" source="znclABgi2BFPKexRemwQ-84" target="znclABgi2BFPKexRemwQ-86" edge="1">
          <mxGeometry relative="1" as="geometry" />
        </mxCell>
        <mxCell id="znclABgi2BFPKexRemwQ-84" value="Input menu" style="shape=parallelogram;perimeter=parallelogramPerimeter;whiteSpace=wrap;html=1;fixedSize=1;" parent="WIyWlLk6GJQsqaUBKTNV-1" vertex="1">
          <mxGeometry x="1350" y="1256.25" width="200" height="60" as="geometry" />
        </mxCell>
        <mxCell id="znclABgi2BFPKexRemwQ-85" value="" style="endArrow=classic;html=1;rounded=0;entryX=0;entryY=0;entryDx=0;entryDy=0;" parent="WIyWlLk6GJQsqaUBKTNV-1" target="znclABgi2BFPKexRemwQ-84" edge="1">
          <mxGeometry width="50" height="50" relative="1" as="geometry">
            <mxPoint x="1280" y="1261.25" as="sourcePoint" />
            <mxPoint x="1230" y="1256.25" as="targetPoint" />
          </mxGeometry>
        </mxCell>
        <mxCell id="znclABgi2BFPKexRemwQ-90" style="edgeStyle=orthogonalEdgeStyle;rounded=0;orthogonalLoop=1;jettySize=auto;html=1;entryX=0;entryY=0.75;entryDx=0;entryDy=0;" parent="WIyWlLk6GJQsqaUBKTNV-1" source="znclABgi2BFPKexRemwQ-86" target="znclABgi2BFPKexRemwQ-68" edge="1">
          <mxGeometry relative="1" as="geometry">
            <Array as="points">
              <mxPoint x="1210" y="1405" />
              <mxPoint x="1210" y="1093" />
              <mxPoint x="1300" y="1093" />
              <mxPoint x="1300" y="787" />
              <mxPoint x="1790" y="787" />
            </Array>
          </mxGeometry>
        </mxCell>
        <mxCell id="znclABgi2BFPKexRemwQ-86" value="Muncul list hero sesuai input menu" style="shape=parallelogram;perimeter=parallelogramPerimeter;whiteSpace=wrap;html=1;fixedSize=1;" parent="WIyWlLk6GJQsqaUBKTNV-1" vertex="1">
          <mxGeometry x="1340" y="1386.25" width="220" height="70" as="geometry" />
        </mxCell>
        <mxCell id="znclABgi2BFPKexRemwQ-91" value="T" style="text;html=1;align=center;verticalAlign=middle;whiteSpace=wrap;rounded=0;" parent="WIyWlLk6GJQsqaUBKTNV-1" vertex="1">
          <mxGeometry x="480" y="1255" width="60" height="30" as="geometry" />
        </mxCell>
        <mxCell id="znclABgi2BFPKexRemwQ-92" value="F" style="text;html=1;align=center;verticalAlign=middle;whiteSpace=wrap;rounded=0;" parent="WIyWlLk6GJQsqaUBKTNV-1" vertex="1">
          <mxGeometry x="1750" y="1061.25" width="60" height="30" as="geometry" />
        </mxCell>
        <mxCell id="znclABgi2BFPKexRemwQ-93" value="T" style="text;html=1;align=center;verticalAlign=middle;whiteSpace=wrap;rounded=0;" parent="WIyWlLk6GJQsqaUBKTNV-1" vertex="1">
          <mxGeometry x="1835" y="1280" width="60" height="30" as="geometry" />
        </mxCell>
        <mxCell id="znclABgi2BFPKexRemwQ-97" style="edgeStyle=orthogonalEdgeStyle;rounded=0;orthogonalLoop=1;jettySize=auto;html=1;entryX=0.5;entryY=0;entryDx=0;entryDy=0;" parent="WIyWlLk6GJQsqaUBKTNV-1" source="znclABgi2BFPKexRemwQ-94" target="znclABgi2BFPKexRemwQ-96" edge="1">
          <mxGeometry relative="1" as="geometry" />
        </mxCell>
        <mxCell id="znclABgi2BFPKexRemwQ-118" style="edgeStyle=orthogonalEdgeStyle;rounded=0;orthogonalLoop=1;jettySize=auto;html=1;entryX=0;entryY=0.5;entryDx=0;entryDy=0;" parent="WIyWlLk6GJQsqaUBKTNV-1" source="znclABgi2BFPKexRemwQ-94" target="znclABgi2BFPKexRemwQ-117" edge="1">
          <mxGeometry relative="1" as="geometry" />
        </mxCell>
        <mxCell id="znclABgi2BFPKexRemwQ-94" value="Input = 2" style="rhombus;whiteSpace=wrap;html=1;" parent="WIyWlLk6GJQsqaUBKTNV-1" vertex="1">
          <mxGeometry x="1870" y="1196.25" width="130" height="120" as="geometry" />
        </mxCell>
        <mxCell id="znclABgi2BFPKexRemwQ-99" style="edgeStyle=orthogonalEdgeStyle;rounded=0;orthogonalLoop=1;jettySize=auto;html=1;entryX=0.5;entryY=0;entryDx=0;entryDy=0;" parent="WIyWlLk6GJQsqaUBKTNV-1" source="znclABgi2BFPKexRemwQ-96" target="znclABgi2BFPKexRemwQ-98" edge="1">
          <mxGeometry relative="1" as="geometry" />
        </mxCell>
        <mxCell id="znclABgi2BFPKexRemwQ-96" value="Menu list tambah hero:&lt;br&gt;1. Semua hero&lt;div&gt;2. Hero Jungle&lt;/div&gt;&lt;div&gt;3. Hero Roam&lt;/div&gt;&lt;div&gt;4. Hero Gold&lt;/div&gt;&lt;div&gt;5. Hero EXP&lt;/div&gt;" style="shape=parallelogram;perimeter=parallelogramPerimeter;whiteSpace=wrap;html=1;fixedSize=1;" parent="WIyWlLk6GJQsqaUBKTNV-1" vertex="1">
          <mxGeometry x="1815" y="1416.25" width="240" height="120" as="geometry" />
        </mxCell>
        <mxCell id="znclABgi2BFPKexRemwQ-101" style="edgeStyle=orthogonalEdgeStyle;rounded=0;orthogonalLoop=1;jettySize=auto;html=1;entryX=0.5;entryY=0;entryDx=0;entryDy=0;" parent="WIyWlLk6GJQsqaUBKTNV-1" source="znclABgi2BFPKexRemwQ-98" target="znclABgi2BFPKexRemwQ-100" edge="1">
          <mxGeometry relative="1" as="geometry" />
        </mxCell>
        <mxCell id="znclABgi2BFPKexRemwQ-98" value="Input menu" style="shape=parallelogram;perimeter=parallelogramPerimeter;whiteSpace=wrap;html=1;fixedSize=1;" parent="WIyWlLk6GJQsqaUBKTNV-1" vertex="1">
          <mxGeometry x="1835" y="1606.25" width="200" height="60" as="geometry" />
        </mxCell>
        <mxCell id="znclABgi2BFPKexRemwQ-107" style="edgeStyle=orthogonalEdgeStyle;rounded=0;orthogonalLoop=1;jettySize=auto;html=1;entryX=0.5;entryY=0;entryDx=0;entryDy=0;" parent="WIyWlLk6GJQsqaUBKTNV-1" source="znclABgi2BFPKexRemwQ-100" target="znclABgi2BFPKexRemwQ-106" edge="1">
          <mxGeometry relative="1" as="geometry" />
        </mxCell>
        <mxCell id="znclABgi2BFPKexRemwQ-100" value="Menambah hero sesuai&lt;div&gt;role pada menu&lt;/div&gt;" style="shape=parallelogram;perimeter=parallelogramPerimeter;whiteSpace=wrap;html=1;fixedSize=1;" parent="WIyWlLk6GJQsqaUBKTNV-1" vertex="1">
          <mxGeometry x="1835" y="1726.25" width="200" height="60" as="geometry" />
        </mxCell>
        <mxCell id="znclABgi2BFPKexRemwQ-105" value="" style="endArrow=classic;html=1;rounded=0;entryX=0;entryY=0;entryDx=0;entryDy=0;" parent="WIyWlLk6GJQsqaUBKTNV-1" target="znclABgi2BFPKexRemwQ-100" edge="1">
          <mxGeometry width="50" height="50" relative="1" as="geometry">
            <mxPoint x="1790" y="1731.25" as="sourcePoint" />
            <mxPoint x="2000" y="1586.25" as="targetPoint" />
          </mxGeometry>
        </mxCell>
        <mxCell id="znclABgi2BFPKexRemwQ-111" style="edgeStyle=orthogonalEdgeStyle;rounded=0;orthogonalLoop=1;jettySize=auto;html=1;entryX=0;entryY=0.25;entryDx=0;entryDy=0;exitX=0;exitY=0.5;exitDx=0;exitDy=0;" parent="WIyWlLk6GJQsqaUBKTNV-1" source="znclABgi2BFPKexRemwQ-106" target="znclABgi2BFPKexRemwQ-68" edge="1">
          <mxGeometry relative="1" as="geometry">
            <mxPoint x="1700" y="1870" as="sourcePoint" />
            <Array as="points">
              <mxPoint x="1130" y="1870" />
              <mxPoint x="1130" y="751" />
            </Array>
          </mxGeometry>
        </mxCell>
        <mxCell id="znclABgi2BFPKexRemwQ-106" value="List hero sesuai role beserta hero tambahan" style="shape=parallelogram;perimeter=parallelogramPerimeter;whiteSpace=wrap;html=1;fixedSize=1;" parent="WIyWlLk6GJQsqaUBKTNV-1" vertex="1">
          <mxGeometry x="1825" y="1836.25" width="220" height="70" as="geometry" />
        </mxCell>
        <mxCell id="znclABgi2BFPKexRemwQ-112" value="T" style="text;html=1;align=center;verticalAlign=middle;whiteSpace=wrap;rounded=0;" parent="WIyWlLk6GJQsqaUBKTNV-1" vertex="1">
          <mxGeometry x="1640" y="1061.25" width="60" height="30" as="geometry" />
        </mxCell>
        <mxCell id="znclABgi2BFPKexRemwQ-113" value="F" style="text;html=1;align=center;verticalAlign=middle;whiteSpace=wrap;rounded=0;" parent="WIyWlLk6GJQsqaUBKTNV-1" vertex="1">
          <mxGeometry x="1960" y="1196.25" width="60" height="30" as="geometry" />
        </mxCell>
        <mxCell id="znclABgi2BFPKexRemwQ-120" style="edgeStyle=orthogonalEdgeStyle;rounded=0;orthogonalLoop=1;jettySize=auto;html=1;entryX=0.5;entryY=0;entryDx=0;entryDy=0;" parent="WIyWlLk6GJQsqaUBKTNV-1" source="znclABgi2BFPKexRemwQ-117" target="znclABgi2BFPKexRemwQ-119" edge="1">
          <mxGeometry relative="1" as="geometry" />
        </mxCell>
        <mxCell id="znclABgi2BFPKexRemwQ-132" style="edgeStyle=orthogonalEdgeStyle;rounded=0;orthogonalLoop=1;jettySize=auto;html=1;entryX=0;entryY=0.5;entryDx=0;entryDy=0;" parent="WIyWlLk6GJQsqaUBKTNV-1" source="znclABgi2BFPKexRemwQ-117" target="znclABgi2BFPKexRemwQ-131" edge="1">
          <mxGeometry relative="1" as="geometry" />
        </mxCell>
        <mxCell id="znclABgi2BFPKexRemwQ-117" value="input = 3" style="rhombus;whiteSpace=wrap;html=1;" parent="WIyWlLk6GJQsqaUBKTNV-1" vertex="1">
          <mxGeometry x="2210" y="1191.37" width="120" height="129.75" as="geometry" />
        </mxCell>
        <mxCell id="znclABgi2BFPKexRemwQ-124" style="edgeStyle=orthogonalEdgeStyle;rounded=0;orthogonalLoop=1;jettySize=auto;html=1;entryX=0.5;entryY=0;entryDx=0;entryDy=0;" parent="WIyWlLk6GJQsqaUBKTNV-1" source="znclABgi2BFPKexRemwQ-119" target="znclABgi2BFPKexRemwQ-121" edge="1">
          <mxGeometry relative="1" as="geometry" />
        </mxCell>
        <mxCell id="znclABgi2BFPKexRemwQ-119" value="Menu list edit hero:&lt;br&gt;1. Semua hero&lt;div&gt;2. Hero Jungle&lt;/div&gt;&lt;div&gt;3. Hero Roam&lt;/div&gt;&lt;div&gt;4. Hero Gold&lt;/div&gt;&lt;div&gt;5. Hero EXP&lt;/div&gt;" style="shape=parallelogram;perimeter=parallelogramPerimeter;whiteSpace=wrap;html=1;fixedSize=1;" parent="WIyWlLk6GJQsqaUBKTNV-1" vertex="1">
          <mxGeometry x="2150" y="1410" width="240" height="120" as="geometry" />
        </mxCell>
        <mxCell id="znclABgi2BFPKexRemwQ-127" style="edgeStyle=orthogonalEdgeStyle;rounded=0;orthogonalLoop=1;jettySize=auto;html=1;" parent="WIyWlLk6GJQsqaUBKTNV-1" source="znclABgi2BFPKexRemwQ-121" target="znclABgi2BFPKexRemwQ-125" edge="1">
          <mxGeometry relative="1" as="geometry" />
        </mxCell>
        <mxCell id="znclABgi2BFPKexRemwQ-121" value="Input menu" style="shape=parallelogram;perimeter=parallelogramPerimeter;whiteSpace=wrap;html=1;fixedSize=1;" parent="WIyWlLk6GJQsqaUBKTNV-1" vertex="1">
          <mxGeometry x="2170" y="1606.25" width="200" height="60" as="geometry" />
        </mxCell>
        <mxCell id="znclABgi2BFPKexRemwQ-122" value="" style="endArrow=classic;html=1;rounded=0;entryX=0;entryY=0;entryDx=0;entryDy=0;" parent="WIyWlLk6GJQsqaUBKTNV-1" edge="1">
          <mxGeometry width="50" height="50" relative="1" as="geometry">
            <mxPoint x="1795" y="1606.25" as="sourcePoint" />
            <mxPoint x="1858" y="1607" as="targetPoint" />
          </mxGeometry>
        </mxCell>
        <mxCell id="znclABgi2BFPKexRemwQ-123" value="" style="endArrow=classic;html=1;rounded=0;entryX=0;entryY=0;entryDx=0;entryDy=0;" parent="WIyWlLk6GJQsqaUBKTNV-1" edge="1">
          <mxGeometry width="50" height="50" relative="1" as="geometry">
            <mxPoint x="2130" y="1606.25" as="sourcePoint" />
            <mxPoint x="2193" y="1607" as="targetPoint" />
          </mxGeometry>
        </mxCell>
        <mxCell id="znclABgi2BFPKexRemwQ-129" style="edgeStyle=orthogonalEdgeStyle;rounded=0;orthogonalLoop=1;jettySize=auto;html=1;" parent="WIyWlLk6GJQsqaUBKTNV-1" source="znclABgi2BFPKexRemwQ-125" target="znclABgi2BFPKexRemwQ-128" edge="1">
          <mxGeometry relative="1" as="geometry" />
        </mxCell>
        <mxCell id="znclABgi2BFPKexRemwQ-125" value="Mengedit hero sesuai&lt;div&gt;role pada menu&lt;/div&gt;" style="shape=parallelogram;perimeter=parallelogramPerimeter;whiteSpace=wrap;html=1;fixedSize=1;" parent="WIyWlLk6GJQsqaUBKTNV-1" vertex="1">
          <mxGeometry x="2170" y="1724" width="200" height="60" as="geometry" />
        </mxCell>
        <mxCell id="znclABgi2BFPKexRemwQ-126" value="" style="endArrow=classic;html=1;rounded=0;entryX=0;entryY=0;entryDx=0;entryDy=0;" parent="WIyWlLk6GJQsqaUBKTNV-1" target="znclABgi2BFPKexRemwQ-125" edge="1">
          <mxGeometry width="50" height="50" relative="1" as="geometry">
            <mxPoint x="2125" y="1729" as="sourcePoint" />
            <mxPoint x="2335" y="1584" as="targetPoint" />
          </mxGeometry>
        </mxCell>
        <mxCell id="znclABgi2BFPKexRemwQ-130" style="edgeStyle=orthogonalEdgeStyle;rounded=0;orthogonalLoop=1;jettySize=auto;html=1;entryX=0;entryY=0;entryDx=0;entryDy=0;" parent="WIyWlLk6GJQsqaUBKTNV-1" source="znclABgi2BFPKexRemwQ-128" target="znclABgi2BFPKexRemwQ-68" edge="1">
          <mxGeometry relative="1" as="geometry">
            <Array as="points">
              <mxPoint x="2270" y="1940" />
              <mxPoint x="1030" y="1940" />
              <mxPoint x="1030" y="728" />
            </Array>
          </mxGeometry>
        </mxCell>
        <mxCell id="znclABgi2BFPKexRemwQ-128" value="List hero sesuai role beserta hero yang diedit" style="shape=parallelogram;perimeter=parallelogramPerimeter;whiteSpace=wrap;html=1;fixedSize=1;" parent="WIyWlLk6GJQsqaUBKTNV-1" vertex="1">
          <mxGeometry x="2100" y="1836.25" width="280" height="70" as="geometry" />
        </mxCell>
        <mxCell id="znclABgi2BFPKexRemwQ-134" style="edgeStyle=orthogonalEdgeStyle;rounded=0;orthogonalLoop=1;jettySize=auto;html=1;entryX=0.5;entryY=0;entryDx=0;entryDy=0;" parent="WIyWlLk6GJQsqaUBKTNV-1" source="znclABgi2BFPKexRemwQ-131" target="znclABgi2BFPKexRemwQ-133" edge="1">
          <mxGeometry relative="1" as="geometry" />
        </mxCell>
        <mxCell id="znclABgi2BFPKexRemwQ-160" style="edgeStyle=orthogonalEdgeStyle;rounded=0;orthogonalLoop=1;jettySize=auto;html=1;" parent="WIyWlLk6GJQsqaUBKTNV-1" source="znclABgi2BFPKexRemwQ-131" target="znclABgi2BFPKexRemwQ-159" edge="1">
          <mxGeometry relative="1" as="geometry" />
        </mxCell>
        <mxCell id="znclABgi2BFPKexRemwQ-131" value="input = 4" style="rhombus;whiteSpace=wrap;html=1;" parent="WIyWlLk6GJQsqaUBKTNV-1" vertex="1">
          <mxGeometry x="2490" y="1191.37" width="120" height="129.75" as="geometry" />
        </mxCell>
        <mxCell id="znclABgi2BFPKexRemwQ-137" style="edgeStyle=orthogonalEdgeStyle;rounded=0;orthogonalLoop=1;jettySize=auto;html=1;entryX=0.5;entryY=0;entryDx=0;entryDy=0;" parent="WIyWlLk6GJQsqaUBKTNV-1" source="znclABgi2BFPKexRemwQ-133" target="znclABgi2BFPKexRemwQ-135" edge="1">
          <mxGeometry relative="1" as="geometry" />
        </mxCell>
        <mxCell id="znclABgi2BFPKexRemwQ-133" value="Menu list menghapus hero:&lt;br&gt;1. Semua hero&lt;div&gt;2. Hero Jungle&lt;/div&gt;&lt;div&gt;3. Hero Roam&lt;/div&gt;&lt;div&gt;4. Hero Gold&lt;/div&gt;&lt;div&gt;5. Hero EXP&lt;/div&gt;" style="shape=parallelogram;perimeter=parallelogramPerimeter;whiteSpace=wrap;html=1;fixedSize=1;" parent="WIyWlLk6GJQsqaUBKTNV-1" vertex="1">
          <mxGeometry x="2430" y="1416.25" width="240" height="120" as="geometry" />
        </mxCell>
        <mxCell id="znclABgi2BFPKexRemwQ-140" style="edgeStyle=orthogonalEdgeStyle;rounded=0;orthogonalLoop=1;jettySize=auto;html=1;entryX=0.5;entryY=0;entryDx=0;entryDy=0;" parent="WIyWlLk6GJQsqaUBKTNV-1" source="znclABgi2BFPKexRemwQ-135" target="znclABgi2BFPKexRemwQ-138" edge="1">
          <mxGeometry relative="1" as="geometry" />
        </mxCell>
        <mxCell id="znclABgi2BFPKexRemwQ-135" value="Input menu" style="shape=parallelogram;perimeter=parallelogramPerimeter;whiteSpace=wrap;html=1;fixedSize=1;" parent="WIyWlLk6GJQsqaUBKTNV-1" vertex="1">
          <mxGeometry x="2450" y="1606.25" width="200" height="60" as="geometry" />
        </mxCell>
        <mxCell id="znclABgi2BFPKexRemwQ-136" value="" style="endArrow=classic;html=1;rounded=0;entryX=0;entryY=0;entryDx=0;entryDy=0;" parent="WIyWlLk6GJQsqaUBKTNV-1" edge="1">
          <mxGeometry width="50" height="50" relative="1" as="geometry">
            <mxPoint x="2410" y="1606.25" as="sourcePoint" />
            <mxPoint x="2473" y="1607" as="targetPoint" />
          </mxGeometry>
        </mxCell>
        <mxCell id="znclABgi2BFPKexRemwQ-142" style="edgeStyle=orthogonalEdgeStyle;rounded=0;orthogonalLoop=1;jettySize=auto;html=1;" parent="WIyWlLk6GJQsqaUBKTNV-1" source="znclABgi2BFPKexRemwQ-138" target="znclABgi2BFPKexRemwQ-141" edge="1">
          <mxGeometry relative="1" as="geometry" />
        </mxCell>
        <mxCell id="znclABgi2BFPKexRemwQ-138" value="Mengedit hero sesuai&lt;div&gt;role pada menu&lt;/div&gt;" style="shape=parallelogram;perimeter=parallelogramPerimeter;whiteSpace=wrap;html=1;fixedSize=1;" parent="WIyWlLk6GJQsqaUBKTNV-1" vertex="1">
          <mxGeometry x="2450" y="1734" width="200" height="60" as="geometry" />
        </mxCell>
        <mxCell id="znclABgi2BFPKexRemwQ-139" value="" style="endArrow=classic;html=1;rounded=0;entryX=0;entryY=0;entryDx=0;entryDy=0;" parent="WIyWlLk6GJQsqaUBKTNV-1" target="znclABgi2BFPKexRemwQ-138" edge="1">
          <mxGeometry width="50" height="50" relative="1" as="geometry">
            <mxPoint x="2405" y="1739" as="sourcePoint" />
            <mxPoint x="2615" y="1594" as="targetPoint" />
          </mxGeometry>
        </mxCell>
        <mxCell id="znclABgi2BFPKexRemwQ-144" style="edgeStyle=orthogonalEdgeStyle;rounded=0;orthogonalLoop=1;jettySize=auto;html=1;entryX=0.25;entryY=0;entryDx=0;entryDy=0;" parent="WIyWlLk6GJQsqaUBKTNV-1" source="znclABgi2BFPKexRemwQ-141" target="znclABgi2BFPKexRemwQ-68" edge="1">
          <mxGeometry relative="1" as="geometry">
            <Array as="points">
              <mxPoint x="2550" y="1980" />
              <mxPoint x="970" y="1980" />
              <mxPoint x="970" y="690" />
              <mxPoint x="1850" y="690" />
            </Array>
          </mxGeometry>
        </mxCell>
        <mxCell id="znclABgi2BFPKexRemwQ-141" value="List hero sesuai role beserta hero yang diedit" style="shape=parallelogram;perimeter=parallelogramPerimeter;whiteSpace=wrap;html=1;fixedSize=1;" parent="WIyWlLk6GJQsqaUBKTNV-1" vertex="1">
          <mxGeometry x="2390" y="1836.25" width="320" height="76.25" as="geometry" />
        </mxCell>
        <mxCell id="znclABgi2BFPKexRemwQ-145" value="F" style="text;html=1;align=center;verticalAlign=middle;whiteSpace=wrap;rounded=0;" parent="WIyWlLk6GJQsqaUBKTNV-1" vertex="1">
          <mxGeometry x="2310" y="1196.25" width="60" height="30" as="geometry" />
        </mxCell>
        <mxCell id="znclABgi2BFPKexRemwQ-146" value="T" style="text;html=1;align=center;verticalAlign=middle;whiteSpace=wrap;rounded=0;" parent="WIyWlLk6GJQsqaUBKTNV-1" vertex="1">
          <mxGeometry x="2190" y="1280" width="60" height="30" as="geometry" />
        </mxCell>
        <mxCell id="znclABgi2BFPKexRemwQ-147" value="T" style="text;html=1;align=center;verticalAlign=middle;whiteSpace=wrap;rounded=0;" parent="WIyWlLk6GJQsqaUBKTNV-1" vertex="1">
          <mxGeometry x="2470" y="1280" width="60" height="30" as="geometry" />
        </mxCell>
        <mxCell id="znclABgi2BFPKexRemwQ-148" value="F" style="text;html=1;align=center;verticalAlign=middle;whiteSpace=wrap;rounded=0;" parent="WIyWlLk6GJQsqaUBKTNV-1" vertex="1">
          <mxGeometry x="2481" y="1190" width="60" height="30" as="geometry" />
        </mxCell>
        <mxCell id="znclABgi2BFPKexRemwQ-154" style="edgeStyle=orthogonalEdgeStyle;rounded=0;orthogonalLoop=1;jettySize=auto;html=1;exitX=0;exitY=0.5;exitDx=0;exitDy=0;entryX=1;entryY=0.5;entryDx=0;entryDy=0;" parent="WIyWlLk6GJQsqaUBKTNV-1" source="znclABgi2BFPKexRemwQ-149" target="znclABgi2BFPKexRemwQ-68" edge="1">
          <mxGeometry relative="1" as="geometry" />
        </mxCell>
        <mxCell id="znclABgi2BFPKexRemwQ-149" value="Anda menginput nomor yang salah" style="shape=parallelogram;perimeter=parallelogramPerimeter;whiteSpace=wrap;html=1;fixedSize=1;" parent="WIyWlLk6GJQsqaUBKTNV-1" vertex="1">
          <mxGeometry x="2210" y="722.75" width="220" height="107" as="geometry" />
        </mxCell>
        <mxCell id="znclABgi2BFPKexRemwQ-155" value="Selesai" style="ellipse;whiteSpace=wrap;html=1;" parent="WIyWlLk6GJQsqaUBKTNV-1" vertex="1">
          <mxGeometry x="-230" y="1600" width="120" height="80" as="geometry" />
        </mxCell>
        <mxCell id="znclABgi2BFPKexRemwQ-164" style="edgeStyle=orthogonalEdgeStyle;rounded=0;orthogonalLoop=1;jettySize=auto;html=1;entryX=1;entryY=0.5;entryDx=0;entryDy=0;" parent="WIyWlLk6GJQsqaUBKTNV-1" source="znclABgi2BFPKexRemwQ-159" target="znclABgi2BFPKexRemwQ-149" edge="1">
          <mxGeometry relative="1" as="geometry">
            <Array as="points">
              <mxPoint x="2750" y="776" />
            </Array>
          </mxGeometry>
        </mxCell>
        <mxCell id="f06vRgXJLZa4It2unBZa-0" style="edgeStyle=orthogonalEdgeStyle;rounded=0;orthogonalLoop=1;jettySize=auto;html=1;entryX=1;entryY=0.25;entryDx=0;entryDy=0;" parent="WIyWlLk6GJQsqaUBKTNV-1" edge="1">
          <mxGeometry relative="1" as="geometry">
            <mxPoint x="2689.9960360360365" y="1254.996666666667" as="sourcePoint" />
            <mxPoint x="114.67428571428577" y="172.75857142857154" as="targetPoint" />
            <Array as="points">
              <mxPoint x="2900" y="1255" />
              <mxPoint x="2900" y="173" />
            </Array>
          </mxGeometry>
        </mxCell>
        <mxCell id="znclABgi2BFPKexRemwQ-159" value="input = 5" style="rhombus;whiteSpace=wrap;html=1;" parent="WIyWlLk6GJQsqaUBKTNV-1" vertex="1">
          <mxGeometry x="2690" y="1189.25" width="120" height="138.75" as="geometry" />
        </mxCell>
        <mxCell id="znclABgi2BFPKexRemwQ-161" value="T" style="text;html=1;align=center;verticalAlign=middle;whiteSpace=wrap;rounded=0;" parent="WIyWlLk6GJQsqaUBKTNV-1" vertex="1">
          <mxGeometry x="2780" y="1189.25" width="60" height="30" as="geometry" />
        </mxCell>
        <mxCell id="znclABgi2BFPKexRemwQ-162" value="F" style="text;html=1;align=center;verticalAlign=middle;whiteSpace=wrap;rounded=0;" parent="WIyWlLk6GJQsqaUBKTNV-1" vertex="1">
          <mxGeometry x="2670" y="1190" width="60" height="30" as="geometry" />
        </mxCell>
        <mxCell id="f06vRgXJLZa4It2unBZa-4" value="" style="edgeStyle=orthogonalEdgeStyle;rounded=0;orthogonalLoop=1;jettySize=auto;html=1;" parent="WIyWlLk6GJQsqaUBKTNV-1" source="SujRIby61cQIM5RwpC2A-21" target="f06vRgXJLZa4It2unBZa-2" edge="1">
          <mxGeometry relative="1" as="geometry">
            <mxPoint x="-170" y="527" as="sourcePoint" />
            <mxPoint x="-165" y="1600" as="targetPoint" />
          </mxGeometry>
        </mxCell>
        <mxCell id="f06vRgXJLZa4It2unBZa-8" style="edgeStyle=orthogonalEdgeStyle;rounded=0;orthogonalLoop=1;jettySize=auto;html=1;entryX=1;entryY=0.25;entryDx=0;entryDy=0;" parent="WIyWlLk6GJQsqaUBKTNV-1" source="f06vRgXJLZa4It2unBZa-2" target="f06vRgXJLZa4It2unBZa-7" edge="1">
          <mxGeometry relative="1" as="geometry" />
        </mxCell>
        <mxCell id="f06vRgXJLZa4It2unBZa-2" value="Pilihan = 3" style="rhombus;whiteSpace=wrap;html=1;" parent="WIyWlLk6GJQsqaUBKTNV-1" vertex="1">
          <mxGeometry x="-240" y="1076.25" width="125" height="120" as="geometry" />
        </mxCell>
        <mxCell id="f06vRgXJLZa4It2unBZa-5" value="F" style="text;html=1;align=center;verticalAlign=middle;whiteSpace=wrap;rounded=0;" parent="WIyWlLk6GJQsqaUBKTNV-1" vertex="1">
          <mxGeometry x="-245" y="1076.25" width="60" height="30" as="geometry" />
        </mxCell>
        <mxCell id="f06vRgXJLZa4It2unBZa-6" value="T" style="text;html=1;align=center;verticalAlign=middle;whiteSpace=wrap;rounded=0;" parent="WIyWlLk6GJQsqaUBKTNV-1" vertex="1">
          <mxGeometry x="-150" y="1170" width="60" height="30" as="geometry" />
        </mxCell>
        <mxCell id="f06vRgXJLZa4It2unBZa-9" style="edgeStyle=orthogonalEdgeStyle;rounded=0;orthogonalLoop=1;jettySize=auto;html=1;entryX=0;entryY=0.25;entryDx=0;entryDy=0;" parent="WIyWlLk6GJQsqaUBKTNV-1" source="f06vRgXJLZa4It2unBZa-7" target="SujRIby61cQIM5RwpC2A-3" edge="1">
          <mxGeometry relative="1" as="geometry">
            <Array as="points">
              <mxPoint x="-670" y="1150" />
              <mxPoint x="-670" y="179" />
            </Array>
          </mxGeometry>
        </mxCell>
        <mxCell id="f06vRgXJLZa4It2unBZa-7" value="Anda memasukkan nomor yang salah" style="shape=parallelogram;perimeter=parallelogramPerimeter;whiteSpace=wrap;html=1;fixedSize=1;" parent="WIyWlLk6GJQsqaUBKTNV-1" vertex="1">
          <mxGeometry x="-610" y="1120" width="270" height="60.25" as="geometry" />
        </mxCell>
      </root>
    </mxGraphModel>
  </diagram>
</mxfile>
